<svg width="732" height="558" viewBox="0 0 732 558" fill="none" xmlns="http://www.w3.org/2000/svg">
<path d="M477.74 15.1439C428.937 -12.2428 388.747 2.17124 354.011 21.7744C257.266 76.5478 226.262 50.0259 134.398 55.5032C25.3094 61.8454 13.2522 150.348 43.3951 216.076C56.0264 243.174 71.2414 271.138 63.2033 302.272C57.1747 326.487 34.7829 348.109 21.2903 369.153C-28.3737 445.259 6.64948 550.482 149.613 557.112C234.3 561.148 281.093 525.113 347.121 478.412C409.703 434.305 473.147 429.116 547.786 429.692C726.06 431.422 845.196 242.021 561.279 122.096C517.069 103.07 517.069 37.0533 477.74 15.1439Z" fill="url(#paint0_linear)"/>
<defs>
<linearGradient id="paint0_linear" x1="305" y1="-26" x2="657" y2="762" gradientUnits="userSpaceOnUse">
<stop stop-color="#FF9700"/>
<stop offset="1" stop-color="#FF9700" stop-opacity="0"/>
</linearGradient>
</defs>
</svg>
