<svg width="58" height="85" viewBox="0 0 58 85" fill="none" xmlns="http://www.w3.org/2000/svg">
<path d="M31.2164 83.7641C31.1451 83.6256 30.9615 83.2718 30.8089 82.9772C30.6557 82.6831 30.4097 82.2079 30.2615 81.9219C30.1133 81.6358 29.9873 81.3976 29.9817 81.3919C29.9762 81.3868 29.8197 81.6409 29.6334 81.9572C29.4476 82.274 29.2878 82.5327 29.279 82.5327C29.2707 82.5327 29.2154 82.4911 29.1568 82.441C29.0981 82.3902 28.5104 81.8888 27.8507 81.3264C26.7029 80.3475 26.5453 80.213 25.978 79.7287C25.3012 79.1503 25.1099 78.9873 24.8821 78.793C24.7466 78.6773 24.5785 78.5337 24.5094 78.4745C24.4292 78.4061 24.3817 78.3742 24.3789 78.3873C24.3745 78.4073 24.4862 79.2255 24.5033 79.2973C24.5099 79.3252 24.5072 79.3321 24.4911 79.3258C24.4795 79.3212 24.1345 79.2175 23.7248 79.0956C23.3145 78.9736 22.8208 78.8266 22.6278 78.7691C22.4348 78.7115 22.0926 78.6095 21.867 78.5429C21.6419 78.4762 21.3721 78.3953 21.267 78.3639C21.1625 78.332 20.8894 78.2511 20.6599 78.1827C20.431 78.1149 20.0456 78.0004 19.8034 77.928L19.3644 77.797L18.9552 77.5104C18.1767 76.9645 17.8682 76.7508 17.8599 76.7508C17.8555 76.7508 17.8499 77.0158 17.8477 77.3389L17.8439 77.9269L17.5862 77.7047C17.1991 77.3702 16.1099 76.426 15.6775 76.0499C15.4674 75.8676 15.0764 75.528 14.8083 75.2961C14.5401 75.0636 14.1453 74.7211 13.9302 74.5348C13.7157 74.3479 13.3795 74.0561 13.1832 73.8863C12.4506 73.2516 11.7976 72.6852 11.6555 72.5621C11.5753 72.492 11.4459 72.3797 11.368 72.3131L11.2264 72.1911L10.8272 71.3165C10.6082 70.835 10.3782 70.333 10.3174 70.2002C10.256 70.0674 10.1006 69.7267 9.97237 69.4435C9.84409 69.1597 9.7335 68.9295 9.72631 68.9312C9.71525 68.9347 9.32046 69.57 8.87922 70.2948C8.79684 70.4299 8.71612 70.5581 8.69953 70.5797L8.66911 70.619L8.4778 70.0401C8.29755 69.4948 8.21184 69.2378 7.71255 67.7352C7.60086 67.3996 7.42779 66.877 7.32716 66.5745C7.22708 66.2719 6.97936 65.5254 6.77699 64.9157C6.57462 64.3066 6.36285 63.669 6.30645 63.4986C6.25005 63.3288 6.08196 62.8234 5.93267 62.3755C5.78338 61.9276 5.61308 61.4154 5.55502 61.2376C5.49641 61.0592 5.36924 60.6758 5.27247 60.3857C5.17626 60.0951 5.01094 59.5965 4.90533 59.2774C4.79972 58.9583 4.70517 58.6803 4.69522 58.6592C4.6814 58.6295 4.67586 57.8181 4.66978 54.9372L4.6626 51.2522L4.15058 50.9217C3.86915 50.7393 3.24378 50.3359 2.76108 50.0242C2.27782 49.7125 1.68453 49.3296 1.44179 49.1729L1 48.888L1.14155 48.6781C1.21952 48.5626 1.37211 48.3356 1.48049 48.1737C1.58942 48.0117 1.76691 47.7472 1.87583 47.5857C1.98421 47.4242 2.16225 47.1595 2.27063 46.9975C2.37955 46.8354 2.50452 46.649 2.54876 46.5833C2.72735 46.3179 2.91424 46.0388 3.04197 45.8471L3.17633 45.6446L2.72734 45.3252C2.48018 45.1494 2.00799 44.8138 1.67845 44.5792C1.34835 44.3447 1.06968 44.1439 1.05862 44.1332C1.03926 44.1142 1.38761 43.5858 2.95847 41.2535C3.06685 41.0922 3.28304 40.7705 3.43841 40.5387C3.59378 40.3068 3.87025 39.8944 4.05271 39.6221C4.23518 39.3499 4.39609 39.1093 4.40991 39.0874L4.43479 39.0476L3.66346 38.4932C3.23936 38.1881 2.76107 37.8441 2.60017 37.7287C2.43871 37.6132 2.3027 37.5144 2.3027 37.5144C2.3027 37.5144 2.32924 37.4636 2.36739 37.4069C2.40554 37.3501 2.48738 37.229 2.54876 37.1378C2.61013 37.0466 2.70357 36.9075 2.7561 36.8287C2.80863 36.7499 2.88383 36.6376 2.92364 36.5789C2.9629 36.5203 3.1531 36.2369 3.34607 35.9489C3.53905 35.6611 3.78952 35.2884 3.90232 35.1208C4.01567 34.9532 4.2396 34.6193 4.40106 34.3788C4.56196 34.1384 5.0054 33.4777 5.38637 32.9106C5.76679 32.3435 6.0792 31.8694 6.08031 31.8569C6.08141 31.8376 5.42674 31.4315 4.3231 30.7677L4.17381 30.6779L4.29434 30.5005C4.36069 30.403 4.47737 30.2298 4.55367 30.1156C4.62942 30.0013 4.75714 29.8114 4.83677 29.6935C4.91639 29.5755 5.08227 29.3284 5.20557 29.1442C5.32888 28.9601 5.45162 28.7769 5.47872 28.7372C5.50581 28.6974 5.87572 28.1459 6.30147 27.5115C6.72723 26.8772 7.11538 26.2991 7.16349 26.2269C7.21215 26.1547 7.56492 25.6294 7.94699 25.0596C8.71501 23.9145 9.97347 22.0396 10.2732 21.5941C10.5612 21.1656 10.8941 20.6694 11.1435 20.2975C11.2657 20.1151 11.4918 19.7769 11.6466 19.5459C11.8015 19.315 11.9248 19.1223 11.9198 19.1176C11.9154 19.113 11.7815 19.1405 11.6229 19.1788C11.4636 19.217 11.1888 19.2829 11.0119 19.3252C10.8349 19.3676 10.6392 19.4144 10.5767 19.4293C10.4949 19.4489 10.4601 19.4518 10.4507 19.4398C10.4346 19.4182 10.1416 18.8339 10.1416 18.8232C10.1416 18.8188 10.2549 18.7105 10.3937 18.5826C10.6823 18.3167 12.4594 16.6747 12.6795 16.4703C12.7602 16.3956 12.8819 16.2826 12.9504 16.2192C13.0942 16.0857 13.3861 15.8159 13.8716 15.3675C14.3023 14.97 15.192 14.1469 15.3866 13.9662C15.4674 13.8912 15.7173 13.6601 15.9418 13.4528C16.6528 12.7963 16.8635 12.5997 16.8668 12.5889C16.869 12.5831 16.5892 12.4361 16.2453 12.2621C15.9014 12.0882 15.1953 11.7295 14.6767 11.4651C14.1575 11.2008 13.641 10.9385 13.5282 10.8823C13.4154 10.8262 12.9808 10.6056 12.5628 10.3922C12.1443 10.1788 11.6173 9.91092 11.3923 9.7969C10.8808 9.53804 10.1637 9.17375 9.32931 8.74901C8.97544 8.56873 8.56073 8.35846 8.40758 8.28165C8.25496 8.2049 7.76785 7.95731 7.3255 7.73144C6.88261 7.50556 6.40874 7.2647 6.27217 7.19621C6.13504 7.12766 5.68109 6.8974 5.26252 6.68446C4.84395 6.47152 4.25453 6.17151 3.95208 6.01789L3.40247 5.73845L5.97469 4.41307L8.54747 3.08768L12.7785 3.09155L17.01 3.09537L17.4856 3.25059C17.7471 3.33594 18.0335 3.42865 18.122 3.45663C18.2104 3.48461 18.4637 3.56518 18.6848 3.63567C18.9066 3.70615 19.1106 3.77043 19.1388 3.77852C19.1847 3.79174 21.4252 4.50173 22.4741 4.83558C22.7035 4.90852 24.0632 5.3397 25.4953 5.79367L28.099 6.61916L28.2124 6.76651C28.3108 6.89455 28.3329 6.91518 28.381 6.92395C28.459 6.93831 30.1255 7.27724 30.167 7.28721C30.1858 7.29177 30.199 7.28909 30.1963 7.28128C30.1935 7.27348 30.1122 7.19399 30.0155 7.10464C29.9192 7.01529 29.6854 6.79871 29.4962 6.62332C29.3071 6.44793 28.9815 6.14582 28.7719 5.95202C28.5629 5.75823 28.329 5.54107 28.2527 5.4695C28.1764 5.39793 27.4228 4.69911 26.5779 3.91659C25.733 3.134 24.9468 2.40527 24.8306 2.29706C24.714 2.18885 24.5492 2.03591 24.4635 1.95711C23.7336 1.28621 23.4284 0.993665 23.4655 1.0001C23.4876 1.00392 23.6308 1.0172 23.7834 1.02956C24.1483 1.05908 24.8743 1.11954 25.4223 1.16598C25.6634 1.18643 26.0615 1.22 26.307 1.24051C27.0894 1.30592 27.6627 1.35402 28.1173 1.39231C28.3611 1.41282 28.7625 1.44655 29.0097 1.46735C29.2574 1.48809 29.6212 1.51886 29.8181 1.53562C30.0155 1.55237 30.4545 1.58946 30.7945 1.61807L31.4121 1.66998L31.87 1.90947C32.1216 2.04121 32.6629 2.32384 33.0732 2.53752C33.4834 2.75126 34.0828 3.0634 34.4046 3.23116C34.7264 3.39891 35.6581 3.88399 36.4748 4.30913C37.2914 4.73421 37.9732 5.09639 37.9903 5.11388C38.0075 5.13143 38.222 5.4307 38.467 5.77897C38.7125 6.12724 39.1172 6.70053 39.3666 7.05296C39.6154 7.40533 40.05 8.01931 40.3314 8.41732C40.6129 8.81534 40.9037 9.22635 40.9778 9.33062L41.1122 9.5202L41.2991 9.55992C41.4013 9.58174 41.5097 9.60397 41.5396 9.60938C41.5938 9.61901 41.669 9.681 42.2606 10.2031C42.333 10.2669 42.7444 10.627 43.1751 11.003C43.6053 11.379 44.02 11.7419 44.0969 11.8093C44.291 11.9803 44.5182 12.1794 45.2669 12.8344C46.1361 13.5941 46.621 14.0191 46.8621 14.2318L47.0617 14.4078L47.1651 14.7143C47.2751 15.0405 47.7174 16.3386 48.0243 17.237C48.1902 17.721 48.9383 19.9141 49.1589 20.5613C49.3464 21.1119 49.8119 22.4776 50.0287 23.1138L50.2593 23.7892L50.1094 24.3651C50.027 24.6819 49.9148 25.114 49.86 25.3255C49.755 25.7327 49.7544 25.7346 49.5958 26.3431C49.2098 27.8242 49.144 28.0832 49.144 28.1111C49.144 28.1284 49.2037 28.3957 49.2772 28.7052C49.3508 29.0147 49.4387 29.3867 49.473 29.5317C49.5073 29.6769 49.6737 30.3791 49.8423 31.0922L50.1492 32.3887L50.1149 32.8636C50.0961 33.1248 50.0641 33.576 50.0436 33.8662C49.9905 34.6264 49.9513 35.1714 49.9209 35.5849L49.8943 35.9468L49.7478 36.2634C49.6671 36.4375 49.5023 36.7937 49.3812 37.0548C49.2607 37.316 49.0848 37.696 48.9903 37.8991C48.8963 38.1023 48.7581 38.4008 48.6834 38.5625C48.6088 38.7242 48.5054 38.948 48.4534 39.06C48.4014 39.172 48.2842 39.4248 48.193 39.622C48.1023 39.8191 48.0232 39.9759 48.0232 39.9759C48.0232 39.9759 47.9226 39.7443 47.8048 39.4667C47.687 39.1891 47.5129 38.7789 47.4178 38.5549C47.3227 38.331 47.0661 37.7273 46.8466 37.2132C46.6276 36.699 46.428 36.23 46.4026 36.1708L46.3567 36.0631L45.3498 35.1407C44.7958 34.6334 44.3352 34.2214 44.3258 34.2252C44.3164 34.2289 44.0853 34.5609 43.8116 34.9628L43.3145 35.6937L42.2484 36.0085C41.6623 36.1817 41.1752 36.3282 41.1664 36.334C41.157 36.3398 41.1525 36.3476 41.1564 36.3512C41.1603 36.3548 41.351 36.4997 41.5805 36.6732C42.0483 37.0273 42.866 37.6476 42.9777 37.7331C43.0529 37.7911 43.2686 37.955 43.8309 38.3822C44.0106 38.5186 44.307 38.7442 44.4895 38.8833C44.6714 39.0224 44.8831 39.1833 44.96 39.2408C45.148 39.3822 46.8676 40.6933 47.5709 41.2316C50.3389 43.3491 51.2927 44.0908 51.3812 44.1946C51.4243 44.2455 51.4259 44.2523 51.4259 44.3898V44.5322L51.6128 44.7465C51.7151 44.8643 51.9142 45.0938 52.0552 45.2566C52.3012 45.5408 52.7192 46.0225 53.3059 46.6961C53.4574 46.8703 53.8815 47.3585 54.2481 47.7811C54.6152 48.2037 54.9713 48.6137 55.0393 48.6923C55.1079 48.7709 55.2262 48.9073 55.3031 48.9954C55.3794 49.0835 55.6625 49.4092 55.9317 49.7188C56.2016 50.0288 56.5521 50.4322 56.7108 50.6151L57 50.9479V54.7805V58.613L56.7672 59.3031C56.0374 61.4655 55.6752 62.5408 55.5121 63.024C55.4114 63.3226 55.3003 63.6513 55.266 63.755C55.2312 63.8588 55.1538 64.0895 55.0935 64.2679C54.9271 64.7602 54.4267 66.244 53.9617 67.6224C53.7328 68.3022 53.4933 69.011 53.4303 69.1979C53.3667 69.3842 53.2893 69.615 53.2572 69.7102C53.1643 69.9882 52.9487 70.6276 52.9072 70.7478C52.8846 70.8145 52.8658 70.8504 52.8597 70.8384C52.8541 70.8276 52.6993 70.4469 52.5146 69.9928C52.3305 69.5387 52.1768 69.1677 52.1724 69.1683C52.168 69.1683 52.147 69.2076 52.1254 69.2549C52.1038 69.3022 51.892 69.7478 51.6554 70.2452C51.4187 70.7427 51.0925 71.4282 50.9311 71.7683L50.6369 72.386L50.084 72.8664C49.4846 73.3872 49.2889 73.557 48.5441 74.2026C48.2742 74.4362 47.9812 74.6904 47.8927 74.7673C47.8043 74.8448 47.4128 75.1844 47.0224 75.5223C46.6321 75.8607 46.1156 76.3086 45.874 76.5183C44.1488 78.0158 44.0244 78.1229 44.0167 78.1229C44.0123 78.1229 44.009 77.9058 44.009 77.6403C44.009 77.3753 44.0018 77.1582 44.0018 77.1582C44.0018 77.1582 43.8049 77.2995 43.5733 77.4722C43.341 77.6454 43.1353 77.7975 43.1154 77.8106C43.0961 77.8238 42.9551 77.8625 42.8019 77.8967C42.6493 77.9309 42.4845 77.9685 42.4364 77.9805C42.3878 77.9924 41.8249 78.1212 41.1852 78.2665C40.5454 78.4118 39.9532 78.5469 39.8686 78.5668C39.784 78.5867 39.35 78.6859 38.9032 78.7873C38.2574 78.9338 38.0821 78.9782 38.0473 79.0061C38.023 79.0249 37.7006 79.2996 37.3307 79.6158C36.9602 79.9321 36.4598 80.3594 36.2187 80.5651C35.9771 80.7708 35.6542 81.0466 35.5005 81.1783C34.3559 82.1561 33.8826 82.5578 33.8788 82.5532C33.8666 82.5384 33.0765 81.3686 33.0654 81.3492C33.0543 81.3293 33.0505 81.3293 33.0322 81.3492C33.0129 81.3697 32.7071 81.8558 31.7229 83.4296C31.5338 83.7322 31.3718 83.988 31.3629 83.9983C31.3513 84.0114 31.3137 83.9516 31.2164 83.7641ZM31.6516 82.1817C31.7787 81.9766 31.949 81.7036 32.0303 81.5754C32.1111 81.4466 32.3239 81.1076 32.5025 80.8216C32.6817 80.5355 33.3419 79.4819 33.9705 78.4802L35.1135 76.6585L35.1798 76.0528C35.2169 75.7194 35.276 75.1787 35.312 74.851C35.3473 74.524 35.4165 73.8926 35.4651 73.4493C35.5138 73.0054 35.563 72.5541 35.5746 72.4464C35.5862 72.3387 35.6327 71.9182 35.6774 71.5119C35.7687 70.6777 35.84 70.0275 35.9981 68.5797C36.0584 68.0281 36.1248 67.4241 36.1452 67.2377C36.1657 67.0514 36.1955 66.7796 36.211 66.6349C36.2271 66.4896 36.2763 66.0383 36.3211 65.632C36.3653 65.2257 36.4222 64.71 36.4466 64.4861C36.4714 64.2622 36.4891 64.0622 36.4858 64.0417C36.4831 64.0206 36.1872 63.5932 35.8289 63.0918C35.4712 62.5898 34.7176 61.535 34.1547 60.7476C33.5918 59.9595 32.743 58.7709 32.2681 58.1059C31.7937 57.4403 31.3994 56.8979 31.3917 56.9007C31.3845 56.903 31.233 57.1281 31.0555 57.401C30.4329 58.3589 29.4714 59.8359 28.882 60.7396C28.1936 61.796 27.5886 62.7248 27.096 63.4838L26.7482 64.0189L26.7687 64.1699C26.7797 64.2525 26.8356 64.6901 26.8925 65.142C27.0197 66.1517 27.0943 66.7437 27.1618 67.2753C27.2436 67.9244 27.2563 68.0247 27.3033 68.3911C27.3277 68.5819 27.3603 68.8406 27.3758 68.966C27.3913 69.0919 27.4399 69.4788 27.4841 69.8258C27.5676 70.4823 27.5732 70.525 27.6677 71.2783C27.7225 71.7136 27.765 72.0476 27.8286 72.5444C27.8441 72.6647 27.8767 72.9228 27.9011 73.1177C27.9254 73.3125 27.9691 73.655 27.9973 73.8789C28.172 75.2596 28.2157 75.6055 28.303 76.3063C28.324 76.4722 28.3445 76.6249 28.3489 76.6454C28.3534 76.6659 28.5192 76.9953 28.7166 77.3765C29.1087 78.1326 29.8136 79.4905 29.9137 79.6831C29.9486 79.7497 30.0945 80.0312 30.2383 80.3087C31.186 82.1384 31.4039 82.5555 31.4116 82.5549C31.416 82.5549 31.5244 82.3868 31.6516 82.1817ZM34.5019 81.0706C34.754 80.8552 35.0952 80.564 35.2605 80.4233C35.4253 80.2819 35.6752 80.0688 35.8162 79.9486C36.0756 79.7269 36.3271 79.5121 36.7048 79.1902C36.9835 78.9526 37.2759 78.703 37.5867 78.438C37.7271 78.3184 37.9511 78.1275 38.0838 78.0141C38.2165 77.9013 38.5466 77.6198 38.8164 77.389C39.0868 77.1582 39.3671 76.9195 39.439 76.8585L39.5706 76.7468L40.0406 75.2152C40.2988 74.3724 40.6167 73.337 40.7467 72.9142C40.8766 72.4909 41.1243 71.6834 41.2974 71.1199C41.5987 70.1381 41.7176 69.7512 42.0278 68.7415C42.1047 68.4908 42.3126 67.815 42.4884 67.24L42.8091 66.1944L42.3518 65.5596C41.0309 63.7243 40.1423 62.4901 39.7448 61.9385C39.5595 61.6815 39.3583 61.4017 39.298 61.3168C39.2377 61.2325 39.183 61.163 39.1764 61.1624C39.1697 61.1624 38.8905 61.4313 38.5554 61.7613C38.2209 62.0906 37.7365 62.5675 37.4794 62.8205C37.2223 63.073 36.9934 63.2958 36.9702 63.3151C36.947 63.3345 36.9282 63.3573 36.9282 63.3659C36.9282 63.375 36.9978 63.4798 37.0835 63.5995L37.2389 63.8177L37.1864 64.3026C37.1178 64.934 36.9669 66.3124 36.921 66.7249C36.9016 66.9033 36.8618 67.2628 36.8336 67.5244C36.8054 67.7853 36.7562 68.2366 36.7241 68.5267C36.6921 68.8167 36.6561 69.1461 36.644 69.2577C36.6036 69.6275 36.4913 70.6561 36.409 71.4065C36.3382 72.0498 36.2282 73.0584 36.1601 73.6829C36.148 73.7906 36.1159 74.0858 36.0877 74.3388C36.0131 75.0157 35.9097 75.9628 35.8599 76.4266C35.8356 76.6505 35.8107 76.8574 35.8041 76.8864C35.7974 76.9155 35.5088 77.3907 35.1627 77.9417C34.8165 78.4933 34.3211 79.2836 34.0618 79.6984C33.8019 80.1127 33.5614 80.4962 33.5271 80.5503L33.4646 80.6483L33.5254 80.7384C33.9136 81.3133 34.0225 81.4706 34.0325 81.4666C34.0386 81.4643 34.2498 81.286 34.5019 81.0706ZM29.1468 81.3606C29.1678 81.3253 29.2745 81.1435 29.384 80.9566L29.5842 80.617L29.107 79.6979C28.0293 77.6198 27.9995 77.5622 27.6738 76.932C27.6633 76.9109 27.6345 76.7314 27.6097 76.5326C27.5853 76.3331 27.5422 75.9872 27.5135 75.7633C27.4853 75.5394 27.4388 75.173 27.4106 74.949C27.3824 74.7251 27.3299 74.3114 27.2945 74.0294C27.2586 73.7479 27.2198 73.439 27.2077 73.3439C27.1955 73.2481 27.1463 72.8584 27.0976 72.4766C27.0495 72.0954 26.9998 71.7017 26.9871 71.6025C26.892 70.847 26.8422 70.4532 26.804 70.1472C26.7797 69.9523 26.7504 69.7221 26.7388 69.635C26.7272 69.5478 26.7012 69.3443 26.6807 69.1825C26.6603 69.0207 26.6144 68.6543 26.5785 68.3683C26.542 68.0822 26.4994 67.7432 26.4834 67.6144C26.4375 67.2497 26.2677 65.9055 26.2257 65.5796C26.2052 65.4177 26.1466 64.9596 26.0957 64.5619L26.0029 63.8382L26.1549 63.6012C26.2384 63.4707 26.297 63.3681 26.2849 63.3727C26.2649 63.3807 26.1372 63.2599 25.4881 62.6165C25.1956 62.3271 24.1118 61.2649 24.0366 61.1943L23.9681 61.1299L23.6855 61.5214C23.5302 61.7368 23.2377 62.143 23.0358 62.4234C22.834 62.7037 22.4757 63.2012 22.2396 63.5288C22.0041 63.8565 21.7669 64.1852 21.7132 64.2599C21.4556 64.6194 20.4581 66.0041 20.4017 66.081L20.3381 66.1682L20.5222 66.7671C20.6234 67.0964 20.7644 67.5557 20.8357 67.7882C20.959 68.191 21.2659 69.1905 21.5595 70.1472C21.899 71.2515 22.0887 71.8686 22.3812 72.8236C22.7118 73.9017 22.9385 74.6391 23.2437 75.6317C23.3449 75.961 23.4616 76.3405 23.502 76.4756L23.5761 76.72L24.3673 77.3947C25.362 78.2426 25.5931 78.4397 25.9122 78.7121C26.0532 78.8323 26.4579 79.1782 26.8118 79.4796C27.5969 80.1492 27.7219 80.2563 28.7774 81.1577C28.9489 81.3042 29.0937 81.4244 29.0992 81.4244C29.1048 81.4244 29.1258 81.3959 29.1468 81.3606ZM23.6297 78.2733C23.6297 78.2557 23.5429 77.6676 23.5379 77.6534C23.5362 77.6482 23.4129 77.5406 23.2642 77.4141C23.1155 77.2876 22.9855 77.1764 22.9761 77.1673C22.9662 77.1582 22.8915 76.9331 22.8102 76.6682C22.2988 75.0037 21.9261 73.79 21.8083 73.4037C21.7337 73.1593 21.6087 72.7524 21.5308 72.4994C21.4528 72.2464 21.2477 71.578 21.0746 71.0145C20.7252 69.8743 20.5079 69.1666 20.1601 68.0366C20.0312 67.6178 19.8405 66.9956 19.7354 66.6537L19.5452 66.0314L19.7089 65.8029C19.799 65.6776 19.8753 65.567 19.8786 65.5579C19.8819 65.5488 19.7481 65.4348 19.5811 65.3044C19.0968 64.926 18.7247 64.6354 18.1657 64.2001C17.8787 63.9761 17.5077 63.6861 17.3412 63.5556C17.1754 63.4251 17.0349 63.3186 17.0299 63.318C17.0244 63.318 16.9614 63.4143 16.8895 63.5328C16.7059 63.8337 16.0236 64.9516 15.4884 65.828C14.7087 67.1044 14.6181 67.2543 14.6181 67.2679C14.6181 67.2822 14.769 67.6776 15.2982 69.0469C15.4729 69.4988 15.7306 70.1672 15.8715 70.5318C16.012 70.8965 16.2774 71.5854 16.4615 72.0624C16.6457 72.5387 17.0111 73.4852 17.2738 74.1655C17.5359 74.8453 17.7852 75.4909 17.8278 75.6003L17.9047 75.7998L18.013 75.8801C18.112 75.9531 18.3282 76.1137 19.1532 76.728C19.3102 76.8448 19.4949 76.9821 19.564 77.0334C19.7033 77.1366 19.6176 77.1064 20.5797 77.3918C21.1078 77.5485 21.549 77.6796 22.05 77.8289C22.2551 77.8904 22.5415 77.9753 22.6864 78.0186C22.8313 78.0614 23.0911 78.1394 23.2642 78.1913C23.5915 78.2899 23.6297 78.2984 23.6297 78.2733ZM41.0829 77.5337C41.988 77.3274 42.7428 77.1554 42.7593 77.1508C42.7759 77.1468 43.1873 76.8482 43.6739 76.487L44.5575 75.83L44.6393 75.6231C44.6846 75.5097 44.8549 75.0704 45.018 74.6476C45.5992 73.141 45.9116 72.3307 46.1958 71.5945C46.3545 71.1843 46.5651 70.6384 46.6641 70.3808C46.7631 70.1238 47.0003 69.5102 47.1911 69.0167C47.3813 68.5232 47.6069 67.9398 47.6909 67.7204C47.7755 67.5004 47.8474 67.3135 47.8507 67.305C47.8546 67.2964 47.828 67.2423 47.7926 67.1842C47.7136 67.0548 47.3287 66.4252 46.6055 65.24C46.302 64.7425 45.9177 64.1135 45.7518 63.8417C45.5859 63.5704 45.4449 63.3482 45.4383 63.3482C45.4267 63.3482 45.1801 63.5391 43.748 64.6576C43.3725 64.9505 43.0529 65.1995 43.0375 65.2109C43.0076 65.2326 43.0059 65.2308 43.4278 65.8115L43.602 66.0508L43.5804 66.1283C43.5683 66.1705 43.4555 66.5409 43.3289 66.9511C43.2028 67.362 43.0408 67.8873 42.97 68.1198C42.8384 68.5506 42.6653 69.1147 42.4215 69.9062C42.1246 70.8714 41.993 71.3005 41.6485 72.4242C41.4511 73.0664 41.2034 73.8738 41.0978 74.218C40.9922 74.5621 40.7445 75.369 40.5471 76.0112C40.3502 76.6534 40.1799 77.1856 40.1694 77.1947C40.0627 77.2824 39.4235 77.8312 39.3787 77.8733L39.3201 77.9286L39.3787 77.9189C39.4108 77.9138 40.1777 77.7406 41.0829 77.5337ZM17.0073 75.7297C16.8585 75.3337 16.6064 74.6602 16.4472 74.2334C16.2874 73.806 16.0607 73.1997 15.9429 72.8852L15.7283 72.3142L15.542 72.0789C15.4392 71.9495 14.5445 70.811 13.5537 69.5495L11.7517 67.2554L11.3414 65.8782C11.1158 65.1209 10.9251 64.4878 10.9179 64.4713C10.9013 64.4314 10.909 64.4041 10.778 64.9613C10.6724 65.4115 10.5828 65.7876 10.2129 67.3403C10.1255 67.7078 10.0536 68.0172 10.0536 68.0275C10.0536 68.0383 10.2649 68.4908 10.5236 69.0332C10.7819 69.5757 11.0478 70.1347 11.1142 70.2754C11.1811 70.4167 11.3635 70.8002 11.52 71.1279L11.8042 71.7239L11.9507 71.8515C12.0315 71.9216 12.3594 72.2065 12.6801 72.484C13.0002 72.7621 13.4149 73.1216 13.6018 73.2835C13.7881 73.4447 14.1597 73.7672 14.4279 73.9992C14.6955 74.2316 15.1102 74.5912 15.3485 74.7986C15.5873 75.006 16.0452 75.4026 16.3659 75.6807C16.6871 75.9582 17.0156 76.2442 17.0968 76.3166C17.1776 76.3884 17.2517 76.4477 17.2605 76.4482C17.2699 76.4488 17.156 76.1251 17.0073 75.7297ZM45.5605 75.8237C45.723 75.683 46.0708 75.381 46.3335 75.153C46.5956 74.9257 47.0014 74.5735 47.2347 74.3718C47.4681 74.1695 47.7938 73.8869 47.9591 73.7439C48.2339 73.5051 48.9217 72.9091 49.7395 72.2003L50.0641 71.9188L50.1299 71.7758C50.1658 71.6971 50.3284 71.3541 50.4904 71.0145C50.6529 70.6743 50.8465 70.2675 50.9211 70.1096C50.9952 69.9523 51.228 69.4623 51.4387 69.0207L51.8213 68.2178L51.777 67.9198C51.7527 67.7563 51.7096 67.4628 51.6814 67.2679C51.6532 67.0731 51.6067 66.7574 51.5785 66.5671C51.5503 66.3762 51.5044 66.0639 51.4762 65.873C51.448 65.6827 51.4027 65.3739 51.3751 65.1875C51.348 65.0006 51.3225 64.8314 51.3198 64.8103L51.3142 64.7727L51.296 64.8177C51.286 64.8428 51.118 65.3955 50.9233 66.0468L50.5689 67.2303L50.366 67.5016C50.0674 67.8999 49.8147 68.2372 49.3779 68.8207C49.1633 69.1067 48.6635 69.7751 48.2665 70.3056C47.4211 71.4356 47.2038 71.7256 46.8637 72.1786L46.6121 72.5142L46.3285 73.2493C45.9735 74.1713 45.6108 75.1109 45.4001 75.6556C45.3106 75.887 45.2376 76.083 45.2376 76.083C45.2376 76.1006 45.2824 76.0647 45.5605 75.8237ZM14.8 69.8372C14.7635 69.7381 14.7148 69.6065 14.6922 69.5444C14.6695 69.4822 14.5208 69.0851 14.3621 68.6623C14.0474 67.8252 13.9844 67.6566 13.8805 67.3762L13.8113 67.191L13.839 67.1426C13.8639 67.0993 14.0419 66.8075 14.8608 65.4662C15.3065 64.7362 15.5674 64.3089 16.1917 63.2878C16.435 62.8895 16.4925 62.7846 16.5461 62.6393C16.5815 62.5442 17.0902 61.1476 17.6774 59.5361L18.7451 56.6061L18.6561 56.1286C18.6074 55.8665 18.5549 55.5839 18.5394 55.5007C18.524 55.4181 18.4869 55.2175 18.457 55.0562C18.4277 54.8944 18.4006 54.7588 18.4006 54.7588C18.4006 54.7588 18.3094 54.7822 18.2016 54.8158C18.0932 54.8488 17.939 54.8961 17.8588 54.9201C17.778 54.9446 17.6006 54.9981 17.4634 55.0397C17.3269 55.0813 16.8431 55.2278 16.388 55.3651C15.9335 55.5024 15.4298 55.6551 15.2689 55.7041C15.108 55.7531 14.894 55.8181 14.7939 55.8483C14.4245 55.9594 14.3272 55.9885 14.0546 56.0711C13.902 56.1178 13.4315 56.2603 13.009 56.3879C12.5866 56.5161 12.0221 56.6871 11.7544 56.768L11.2679 56.9161V60.0205V63.1254L11.5836 64.183C11.7572 64.7642 11.964 65.4571 12.0431 65.7226C12.1227 65.9881 12.2338 66.3602 12.2902 66.5494C12.3472 66.7391 12.3992 66.9021 12.4069 66.9112C12.4434 66.9585 14.5053 69.5842 14.6678 69.7905C14.7707 69.9216 14.858 70.0258 14.8613 70.0224C14.8613 70.0224 14.837 69.9358 14.8 69.8372ZM47.828 69.68C47.943 69.5267 48.1332 69.272 48.2516 69.1147C48.3693 68.9574 48.7022 68.513 48.9903 68.1272C49.2789 67.7415 49.5814 67.338 49.6621 67.2303C49.9032 66.909 49.9297 66.8708 49.9457 66.8155C49.954 66.7864 50.027 66.5426 50.1078 66.273C50.1879 66.0035 50.4351 65.1744 50.6574 64.4308L51.0604 63.0792L51.0566 59.984L51.0527 56.8888L50.9432 56.8563C50.883 56.8381 50.7049 56.7845 50.5484 56.7372C50.3914 56.6893 50.1741 56.6238 50.0657 56.5913C49.8838 56.5366 49.6953 56.4796 49.0268 56.2762C48.8941 56.2358 48.5253 56.1241 48.2073 56.0283C47.4216 55.7913 47.112 55.6973 46.8615 55.6204C46.7448 55.585 46.5441 55.5241 46.4153 55.4853C46.1903 55.4175 46.1012 55.3907 45.8154 55.3041C45.7429 55.2825 45.5981 55.2386 45.4936 55.2072C45.0048 55.0597 44.3186 54.8522 44.1367 54.7964C44.0261 54.7622 43.931 54.7389 43.926 54.7446C43.9144 54.7565 43.586 56.5104 43.5849 56.564C43.5843 56.5845 43.6761 56.8529 43.7878 57.1594C43.8995 57.466 44.3673 58.7504 44.8273 60.0131L45.6639 62.3094L46.0891 63.0057C46.7249 64.0462 47.2817 64.9585 47.6881 65.6246C48.1637 66.4041 48.5662 67.0628 48.6176 67.146L48.6585 67.2127L48.632 67.2816C48.4434 67.7694 48.0099 68.8936 47.8319 69.3552C47.7075 69.6777 47.6024 69.9484 47.5975 69.9563C47.593 69.9643 47.5958 69.9677 47.6041 69.9649C47.6129 69.9615 47.7136 69.8333 47.828 69.68ZM9.13191 68.5004C9.27124 68.2742 9.39068 68.0725 9.39732 68.052C9.40395 68.0309 9.42663 67.8548 9.44708 67.66C9.48137 67.3386 9.49574 67.2588 9.60246 66.8081C9.73847 66.236 9.88112 65.6366 10.272 63.9932L10.5513 62.8223V60.0495V57.2774L10.7271 56.8614L10.9029 56.4449L10.8515 55.4226C10.8228 54.8602 10.7868 54.1354 10.7708 53.8123C10.7548 53.4887 10.7349 53.0955 10.7266 52.9377C10.7094 52.6112 10.6807 52.0408 10.6386 51.1889C10.6232 50.8658 10.5999 50.4111 10.5878 50.1786C10.5756 49.9467 10.5491 49.4208 10.5286 49.0104C10.5087 48.6 10.4788 48.0131 10.4634 47.7063C10.4479 47.3995 10.4307 47.0603 10.4258 46.9525C10.381 46.0295 10.3522 45.5113 10.3456 45.5085C10.3384 45.5055 9.94472 45.9537 8.62156 47.4726C8.40813 47.7172 8.18033 47.9784 8.11453 48.053C8.04873 48.1277 7.89778 48.3007 7.7789 48.4375C7.66002 48.5743 7.53561 48.7168 7.50243 48.7541C7.46926 48.7914 7.32716 48.9543 7.18672 49.1159C7.04683 49.2776 6.89532 49.4506 6.85053 49.5004C6.80575 49.5501 6.51601 49.8823 6.20582 50.2385C5.89618 50.5952 5.58544 50.9513 5.51521 51.0299L5.38749 51.1741L5.38693 54.8112L5.38637 58.4483L5.48757 58.7538C5.54341 58.9213 5.67943 59.3304 5.78946 59.6621C6.18812 60.8632 6.34349 61.331 6.53481 61.9083C6.80077 62.7094 7.29011 64.183 7.37582 64.4411C7.45323 64.6719 7.74848 65.5602 8.04927 66.4691C8.67906 68.3665 8.86153 68.9113 8.86982 68.9113C8.8748 68.9113 8.99257 68.7261 9.13191 68.5004ZM52.8282 68.7341C52.8364 68.7113 53.009 68.2007 53.2114 67.5996C53.6343 66.3443 54.1469 64.8229 54.2326 64.5693C54.2652 64.4736 54.3681 64.1687 54.4615 63.8907C54.555 63.6132 54.6606 63.3009 54.6954 63.1972C54.7308 63.0935 54.843 62.7613 54.9448 62.4587C55.0465 62.1556 55.1792 61.7624 55.2395 61.584C55.2997 61.4057 55.4042 61.0968 55.4712 60.898C55.5381 60.6991 55.6464 60.3766 55.7122 60.1817C55.778 59.9869 55.8903 59.6546 55.961 59.4432C56.0324 59.2318 56.1336 58.9304 56.1866 58.7737L56.2829 58.4888V54.8602V51.2311L55.9367 50.8333C55.3302 50.1353 54.2708 48.9166 53.855 48.4366C53.7222 48.2837 53.4458 47.9652 53.2401 47.7289C52.8099 47.2349 51.6537 45.9043 51.4707 45.693C51.4027 45.6145 51.343 45.5484 51.3375 45.5461C51.3325 45.5438 51.3237 45.6285 51.3181 45.7345C51.3126 45.8406 51.2888 46.2462 51.265 46.6359C51.223 47.3369 51.1815 48.0215 51.1113 49.2064C51.0914 49.5422 51.0616 50.0339 51.0455 50.2994C51.03 50.565 51.0002 51.0636 50.9797 51.4077C50.9593 51.7519 50.93 52.2471 50.9139 52.508C50.8713 53.2175 50.8724 53.1941 50.8332 53.8499C50.8133 54.1856 50.7807 54.732 50.7608 55.0637C50.7409 55.3953 50.7204 55.7451 50.7154 55.8409L50.7055 56.0152L50.8868 56.0705C50.9864 56.1007 51.2158 56.1708 51.3966 56.2255C51.578 56.2808 51.7372 56.3292 51.7516 56.3338C51.7759 56.3406 51.777 56.5127 51.777 59.6729V63.0046L51.8655 63.6023C51.9136 63.9311 51.9695 64.3083 51.9888 64.4411C52.0087 64.5739 52.0519 64.8656 52.0845 65.0895C52.1176 65.3135 52.1768 65.7135 52.2155 65.979C52.2548 66.244 52.341 66.8309 52.4074 67.2828L52.5274 68.1044L52.6606 68.4395C52.7342 68.6241 52.7983 68.7751 52.8033 68.7751C52.8082 68.7751 52.8193 68.7569 52.8282 68.7341ZM20.5206 64.6776C20.6251 64.5311 20.8136 64.2684 20.9386 64.0941C21.0641 63.9203 21.4257 63.4183 21.742 62.9784C22.3707 62.1054 22.6438 61.7265 22.9789 61.2621C23.4047 60.6718 23.7408 60.2034 23.8055 60.1111C23.842 60.0592 23.8757 60.0188 23.8807 60.0205C23.8896 60.0233 24.8517 60.9652 25.2393 61.3504C25.3399 61.4501 25.6916 61.7966 26.0217 62.1197C26.3512 62.4428 26.6365 62.7231 26.6559 62.7419C26.6752 62.7613 26.694 62.7721 26.694 62.7721C26.694 62.7721 26.9274 62.4148 27.2082 61.9835C27.4886 61.5521 27.9105 60.9043 28.1455 60.5436C28.3804 60.1829 28.7669 59.5897 29.0041 59.2244C29.2414 58.8598 29.6345 58.2558 29.8772 57.8831C30.7652 56.5195 30.8714 56.3554 30.8797 56.3332C30.8891 56.3076 30.8548 56.2859 30.4987 56.0962C30.3699 56.0278 29.9679 55.8118 29.6063 55.6175C29.2441 55.4226 28.8753 55.2243 28.7868 55.177C28.6984 55.1292 28.4711 55.0072 28.282 54.9052C28.0929 54.8038 27.7866 54.6391 27.6019 54.5394C27.4167 54.4403 27.1203 54.2807 26.9434 54.1856C26.7664 54.0898 26.5425 53.9696 26.4463 53.9178C26.3495 53.8659 26.1256 53.7457 25.9487 53.6505C25.7717 53.5548 25.472 53.3935 25.2829 53.2921C25.0938 53.1907 24.8666 53.0682 24.7781 53.0209C24.6897 52.973 24.2423 52.732 23.7834 52.4852C23.325 52.2391 22.6532 51.8778 22.2911 51.6829C21.9294 51.4881 21.544 51.2807 21.4357 51.2225C21.3267 51.1644 21.1094 51.0476 20.9524 50.9627C20.7959 50.8778 20.5554 50.749 20.4188 50.6766C20.2817 50.6037 20.1368 50.5257 20.097 50.5029C20.0567 50.4801 19.9184 50.4054 19.7896 50.337C19.6608 50.2687 19.4965 50.1803 19.4241 50.141C19.3517 50.1017 19.2068 50.0236 19.1018 49.9678C18.8325 49.8231 18.6257 49.7114 18.4731 49.6282C18.4006 49.5889 18.2359 49.5008 18.107 49.4324C17.9782 49.364 17.8206 49.2792 17.7559 49.2441C17.6918 49.2089 17.5569 49.136 17.4562 49.0821C17.1814 48.9348 16.6258 48.6361 16.2641 48.4412C16.0866 48.3458 15.8633 48.2253 15.7665 48.1735C15.3778 47.9648 14.2869 47.378 12.4528 46.3912C11.2961 45.7687 11.0981 45.6635 11.086 45.6635C11.0804 45.6635 11.0793 45.7296 11.0843 45.8104C11.0893 45.8913 11.1059 46.2186 11.1219 46.5379C11.1518 47.1434 11.2043 48.1961 11.2535 49.1612C11.269 49.4721 11.2889 49.8692 11.2972 50.043C11.3055 50.2174 11.3221 50.5427 11.3337 50.7667C11.3453 50.9906 11.3619 51.3166 11.3702 51.4903C11.3785 51.6647 11.3984 52.0613 11.4144 52.3724C11.4299 52.6835 11.4597 53.2704 11.4802 53.6767C11.5007 54.083 11.53 54.6699 11.5454 54.9805C11.5615 55.2916 11.5781 55.6409 11.583 55.7571C11.588 55.8734 11.5941 55.9759 11.5974 55.9856C11.6024 56.0033 11.776 55.9531 14.0989 55.2614C14.3079 55.1993 14.7751 55.0602 15.1373 54.9531C16.1629 54.6488 17.1593 54.3531 17.4562 54.2648C17.605 54.2203 17.9246 54.1252 18.1657 54.0534C18.4073 53.9816 18.6832 53.8995 18.7788 53.871C18.8745 53.8425 18.9558 53.8232 18.9558 53.8232C18.9558 53.8232 19.0188 54.1531 19.0929 54.5508C19.1665 54.9491 19.2853 55.5896 19.3567 55.9748L19.486 56.6751L18.8021 58.5526C18.4255 59.5857 17.9384 60.9219 17.72 61.5219C17.501 62.122 17.328 62.6177 17.3346 62.624C17.3412 62.6297 17.4944 62.7499 17.6758 62.8912C17.8566 63.0319 18.1463 63.2576 18.3194 63.3926C18.4924 63.5277 18.7722 63.7459 18.9409 63.877C19.11 64.0086 19.4855 64.3026 19.7752 64.53C20.0644 64.7573 20.3082 64.9437 20.3165 64.9442C20.3243 64.9442 20.4166 64.8246 20.5206 64.6776ZM43.3449 64.0451C44.7029 62.9846 45.0136 62.7425 45.0308 62.7311C45.0429 62.7237 44.715 61.8074 43.942 59.6843L42.8362 56.6483L42.881 56.4061C43.0557 55.4625 43.3526 53.8653 43.3587 53.8323C43.3659 53.7958 43.3709 53.793 43.4063 53.8049C43.4278 53.8123 43.5838 53.8596 43.753 53.9109C43.9216 53.9616 44.1688 54.0368 44.3015 54.0773C44.4342 54.1178 45.1027 54.32 45.7861 54.5269C46.47 54.7337 47.5007 55.0454 48.0757 55.2198C49.6433 55.6944 49.9773 55.7947 49.99 55.7947C49.9961 55.7947 50.016 55.5423 50.0342 55.2329C50.0525 54.924 50.0834 54.4072 50.1028 54.0836C50.1514 53.2767 50.189 52.6482 50.241 51.7696C50.2653 51.3587 50.3018 50.7484 50.3223 50.4123C50.3422 50.0766 50.3748 49.5272 50.3947 49.1913C50.4152 48.8555 50.4445 48.3636 50.4605 48.0983C50.4766 47.8329 50.5059 47.3377 50.5258 46.9977C50.5457 46.6577 50.5661 46.3236 50.5706 46.2552C50.575 46.1868 50.5755 46.1308 50.5711 46.1308C50.5628 46.1308 50.4157 46.2095 49.0782 46.9297C47.5007 47.779 46.7808 48.1664 42.8019 50.3068C42.1743 50.6447 41.2891 51.1211 40.8346 51.3661C40.3795 51.6106 39.8532 51.8938 39.6641 51.9958C39.4749 52.0972 39.1028 52.2972 38.8374 52.4402C38.572 52.5832 37.9793 52.9023 37.5209 53.1491C37.062 53.3958 36.4698 53.7143 36.2044 53.8574C35.9384 54.0004 35.422 54.2784 35.0559 54.4756C34.6899 54.6728 34.1796 54.9474 33.9219 55.0859C33.6642 55.2249 33.286 55.4283 33.0809 55.5383C32.1216 56.054 31.8434 56.2044 31.8318 56.217C31.8191 56.2295 31.8965 56.34 32.805 57.6113C33.5857 58.7036 35.7748 61.7681 35.9334 61.9909C36.2165 62.388 36.4344 62.6918 36.4615 62.7277L36.4886 62.763L36.5527 62.7049C36.5876 62.673 36.8198 62.4467 37.0686 62.2017C37.6177 61.6604 38.1468 61.1402 38.2104 61.0792C38.2364 61.0541 38.4819 60.8131 38.7561 60.5436C39.0309 60.274 39.261 60.0541 39.2682 60.0541C39.2753 60.0541 39.5435 60.4182 39.8642 60.8627C40.1844 61.3077 40.6145 61.9048 40.8191 62.1898C41.0243 62.4741 41.2946 62.8496 41.4201 63.024C41.5457 63.1978 41.8022 63.5545 41.9902 63.8154C42.542 64.5824 42.5763 64.6297 42.5874 64.6291C42.5929 64.6291 42.9335 64.3665 43.3449 64.0451ZM30.7691 55.3953C30.7691 55.3953 30.5756 54.9964 30.3395 54.5172C30.1034 54.038 29.6909 53.2021 29.4233 52.659C29.1557 52.116 28.8294 51.4544 28.6989 51.1889C27.812 49.3904 27.5566 48.8717 27.462 48.6787C27.4034 48.5585 27.1928 48.1311 26.9943 47.7289C26.7958 47.3268 26.49 46.706 26.3147 46.3494C26.1394 45.9929 25.9188 45.5451 25.8243 45.3544C25.7292 45.1637 25.4168 44.5293 25.1292 43.9447C24.8417 43.3602 24.5061 42.6783 24.3833 42.4295C24.2606 42.1808 24.0516 41.7568 23.9189 41.4873C23.7862 41.2178 23.5584 40.7565 23.4129 40.4621C23.2675 40.1677 22.9988 39.6216 22.8152 39.2483C21.8747 37.3363 21.7049 36.9948 21.6944 36.9947C21.6878 36.9945 21.3389 37.2334 20.9187 37.5253C20.1567 38.0551 19.2018 38.7184 17.9644 39.5776C17.6039 39.8278 17.0084 40.2417 16.6401 40.4975C16.2724 40.7533 15.7046 41.1476 15.3789 41.3739C14.6009 41.9137 13.6023 42.6074 12.178 43.5966L11.0191 44.4018V44.5012C11.0191 44.5559 11.0235 44.6449 11.0285 44.699L11.0373 44.7975L11.1562 44.8612C11.2214 44.8963 11.4365 45.0119 11.6334 45.118C11.8308 45.2243 12.1105 45.3743 12.2554 45.4516C12.4003 45.5288 12.5518 45.6105 12.5916 45.6333C12.6319 45.656 12.7967 45.7443 12.9576 45.8295C13.1185 45.9147 13.2568 45.9892 13.2645 45.9951C13.2728 46.001 13.411 46.0756 13.5719 46.1609C13.7328 46.2463 13.98 46.3786 14.1204 46.455C14.2614 46.5314 14.4754 46.6466 14.5959 46.7111C14.7165 46.7755 14.868 46.857 14.9327 46.8922C14.9968 46.9273 15.1417 47.0053 15.2545 47.0655C15.3667 47.1257 15.6006 47.2512 15.7737 47.3445C15.9467 47.4377 16.2431 47.5971 16.4322 47.6987C16.6213 47.8003 16.848 47.9225 16.9365 47.9703C17.0255 48.0181 17.4795 48.2623 17.9461 48.5128C18.4128 48.7634 18.9364 49.045 19.1095 49.1385C19.4446 49.3197 20.9496 50.1291 21.3035 50.3182C21.4202 50.3803 21.5617 50.4573 21.6181 50.488C21.6745 50.5194 21.826 50.6003 21.9549 50.6687C22.0837 50.737 22.2413 50.822 22.306 50.8573C22.3701 50.8926 22.5084 50.9673 22.6129 51.0231C22.7174 51.0795 22.8722 51.1627 22.9568 51.2077C23.3068 51.3963 23.4417 51.4693 23.6225 51.5656C23.727 51.622 23.8785 51.7035 23.9587 51.7468C24.0394 51.7901 24.1826 51.8676 24.2772 51.9183C24.3717 51.969 24.5232 52.0505 24.6134 52.0995C24.704 52.1479 25.0087 52.3114 25.2901 52.463C25.5716 52.614 25.8746 52.777 25.963 52.8243C26.14 52.92 26.4601 53.0921 27.4554 53.6271C29.4343 54.6916 29.9375 54.9622 30.3229 55.1713C30.732 55.393 30.7691 55.4112 30.7691 55.3953ZM32.539 54.9958C32.7607 54.8773 33.0798 54.7058 33.249 54.6146C33.4176 54.5235 33.6283 54.4101 33.7168 54.3622C33.8052 54.3149 34.0225 54.1975 34.1995 54.1024C34.377 54.0066 34.7585 53.8015 35.0482 53.646C35.3379 53.491 35.7034 53.2944 35.8605 53.2095C36.0169 53.1246 36.3133 52.965 36.5184 52.855C36.7236 52.7445 37.02 52.5855 37.177 52.5006C37.334 52.4157 37.5673 52.2904 37.6962 52.222C37.825 52.153 37.9765 52.0715 38.0329 52.0402C38.0888 52.0094 38.2961 51.8972 38.4935 51.7918C38.6909 51.6858 39.0625 51.4864 39.3201 51.3473C39.5778 51.2089 39.956 51.0049 40.1611 50.8949C40.5017 50.712 41.1923 50.3405 41.6314 50.1034C41.7867 50.0197 42.8511 49.4472 43.3067 49.2025C43.3991 49.1528 43.5406 49.0764 43.6214 49.0328C43.8066 48.932 44.6951 48.4548 44.9744 48.3056C45.091 48.2433 45.2326 48.1669 45.289 48.1357C45.3797 48.0856 46.0587 47.7204 46.6127 47.4238C46.7216 47.3656 46.8565 47.2926 46.9129 47.2616C46.9693 47.2306 47.1142 47.1525 47.2347 47.088C47.3553 47.0236 47.5825 46.9015 47.7396 46.8168C47.896 46.7321 48.1233 46.61 48.2438 46.5455C48.3649 46.4812 48.5098 46.4029 48.5662 46.3717C48.622 46.3405 48.836 46.2252 49.0411 46.1155C49.2468 46.0056 49.4669 45.8872 49.5316 45.8522C49.5957 45.8172 49.7705 45.7234 49.9192 45.6438C50.0679 45.564 50.2886 45.4451 50.4091 45.3793L50.6286 45.2596L50.6458 44.9979C50.6552 44.854 50.6634 44.6922 50.664 44.6383L50.6651 44.5403L50.5811 44.4726C50.4754 44.3876 48.2394 42.6611 47.906 42.4073C47.77 42.3039 47.5206 42.1134 47.352 41.9841C47.0501 41.7533 46.5552 41.3759 46.0349 40.9793C45.89 40.8689 45.6794 40.7084 45.5671 40.6224C45.3139 40.4293 41.8288 37.7797 41.0486 37.1875C40.943 37.107 40.8495 37.0409 40.8418 37.0405C40.8335 37.0402 40.3414 38.0389 39.7486 39.2598C39.1554 40.4808 37.8565 43.1521 36.8618 45.1961C32.5036 54.1525 31.954 55.2842 31.954 55.2973C31.954 55.3053 31.9955 55.2887 32.0452 55.2614C32.0956 55.2335 32.3178 55.1138 32.539 54.9958ZM32.9377 51.6146C33.8124 49.8134 35.2069 46.9453 36.0363 45.2413C38.049 41.1071 40.2347 36.6067 40.2347 36.5961C40.2347 36.5913 36.2016 36.5875 31.2728 36.5875C26.3435 36.5875 22.3132 36.5926 22.3159 36.5988C22.338 36.6481 22.7572 37.5017 22.8174 37.6202C22.86 37.7032 23.0475 38.0831 23.2349 38.4645C23.4223 38.8459 23.7679 39.5481 24.0029 40.0249C24.2379 40.5017 24.5802 41.1971 24.7632 41.5702C24.9468 41.9434 25.1475 42.3504 25.21 42.4748C25.2724 42.5992 25.4831 43.0266 25.6783 43.4246C25.8729 43.8226 26.0969 44.2772 26.1754 44.4347C26.2539 44.5923 26.4579 45.0061 26.6288 45.3544C26.9406 45.9888 27.2104 46.5361 27.5726 47.2691C27.6793 47.4847 27.9127 47.9596 28.0918 48.3245C28.271 48.6892 28.475 49.1031 28.5452 49.2441C28.616 49.3851 28.82 49.7991 28.9992 50.1638C29.1783 50.5285 29.5173 51.2174 29.7523 51.6938C29.9873 52.1707 30.3362 52.8795 30.5275 53.2693C30.7188 53.6591 30.9101 54.046 30.9521 54.1286C30.9947 54.2118 31.0959 54.4169 31.1772 54.585C31.2584 54.7525 31.3303 54.8904 31.3358 54.8904C31.3419 54.8904 32.0629 53.4163 32.9377 51.6146ZM5.58544 49.8436C5.93102 49.4481 6.39105 48.9209 6.60836 48.6723C6.82566 48.4237 7.06175 48.1526 7.13308 48.0699C7.20386 47.9872 7.29066 47.8885 7.32439 47.8506C7.35867 47.8127 7.68269 47.4424 8.0443 47.0278C8.40592 46.6132 8.99756 45.9348 9.35862 45.5202C9.72024 45.1056 10.1908 44.5668 10.4042 44.3229C10.6176 44.079 10.8322 43.8323 10.8803 43.7748C10.951 43.6905 11.029 43.6273 11.2828 43.4505C13.0544 42.2135 13.8141 41.6765 16.2564 39.9347C18.399 38.4068 18.791 38.1289 19.8897 37.3564L20.5007 36.9267L20.4304 36.9214C20.3613 36.9163 19.214 36.9364 17.9611 36.9647C17.6066 36.9727 16.9553 36.9859 16.5124 36.9941C16.0701 37.0023 15.5497 37.0127 15.3568 37.0172C14.7104 37.0324 13.6377 37.0548 12.8481 37.0697C11.9391 37.0868 11.5062 37.096 10.668 37.1158C10.334 37.1237 9.99448 37.1302 9.9132 37.1302H9.76502L9.64116 37.3149C9.57315 37.4164 9.488 37.5437 9.4515 37.5976C9.41502 37.6514 9.1098 38.106 8.77306 38.6077C6.96499 41.3021 5.27801 43.8161 5.06236 44.1372C4.95509 44.2969 4.8047 44.5208 4.72784 44.6347C4.65099 44.7486 4.53653 44.9198 4.47239 45.0151C4.40881 45.1105 4.32476 45.236 4.28605 45.294C4.2468 45.3521 4.14781 45.4998 4.06543 45.6224C3.9836 45.7449 3.78786 46.0366 3.63083 46.2707C2.44756 48.0311 2.02955 48.6577 2.02955 48.6686C2.02955 48.6798 4.92856 50.5604 4.94957 50.5621C4.95399 50.5627 5.24041 50.2396 5.58544 49.8436ZM4.39221 43.8384C5.43725 42.2781 5.82761 41.6956 6.07477 41.329C6.18591 41.1631 6.58015 40.5763 6.95006 40.0249C7.31997 39.4735 7.79383 38.7679 8.00229 38.457C8.21129 38.146 8.59779 37.5693 8.86154 37.1755C9.12528 36.7816 9.35253 36.4466 9.3669 36.4309C9.39123 36.4044 9.43326 36.4018 10.0194 36.3907C10.7984 36.3758 11.3431 36.3644 12.1603 36.3459C12.5103 36.338 13.1655 36.3246 13.6162 36.3161C14.0668 36.3075 14.9028 36.2906 15.474 36.2785C16.0452 36.2663 16.8646 36.2494 17.2953 36.241C18.8745 36.21 19.5469 36.196 19.7968 36.1886C19.9378 36.1844 20.3326 36.1767 20.6748 36.1714C21.0165 36.1661 21.3472 36.1575 21.4097 36.1522L21.5225 36.1427L21.3494 35.8412C21.2543 35.6754 21.0425 35.3056 20.8794 35.0196C20.7158 34.7335 20.4443 34.2586 20.2756 33.9642C20.107 33.6698 19.8703 33.256 19.7492 33.0445C19.6281 32.8331 19.4932 32.5973 19.449 32.5207L19.3688 32.3812L14.576 32.3817L9.78326 32.3821L9.53887 32.7473C9.22149 33.2219 7.71697 35.4642 5.98631 38.0419C5.57936 38.6474 4.92137 39.628 4.52381 40.2208C3.51362 41.7265 2.58026 43.1173 2.28998 43.549C2.15451 43.7502 2.04227 43.9197 2.04061 43.9259C2.03895 43.9321 2.31486 44.1339 2.65326 44.3744C2.99165 44.6148 3.33557 44.8604 3.4174 44.92C3.49868 44.9797 3.57222 45.0285 3.57997 45.0286C3.58826 45.0286 3.95374 44.4931 4.39221 43.8384ZM5.01869 38.1832C5.50968 37.4523 6.03828 36.6642 6.65977 35.738C7.04184 35.1682 7.41728 34.609 7.49414 34.4952C7.63126 34.292 7.81152 34.0226 7.90055 33.8888C7.92487 33.8515 8.11619 33.5666 8.32519 33.2557C8.76089 32.6075 9.02299 32.2171 9.24693 31.8837L9.4034 31.65L14.1702 31.6462C18.6489 31.6426 18.9364 31.6409 18.9276 31.6168C18.9221 31.6027 18.8187 31.4178 18.697 31.206C18.169 30.2856 17.5016 29.1193 17.4363 29.0028L17.3976 28.9336V27.3557V25.7778L14.2194 25.7786L11.0412 25.7794L10.6315 26.3924C10.4064 26.7295 9.7617 27.6908 9.19938 28.5286C7.34651 31.2894 6.1179 33.1202 5.78449 33.6175C5.60368 33.8869 5.41016 34.1753 5.35431 34.2582C5.2758 34.375 4.18597 35.9985 3.38865 37.1863L3.29521 37.3253L3.43786 37.4289C3.51582 37.4858 3.76463 37.6648 3.98968 37.8266C4.21472 37.9885 4.49782 38.1921 4.61891 38.2792C4.73945 38.3663 4.84175 38.4357 4.84562 38.4335C4.84949 38.4313 4.92745 38.3187 5.01869 38.1832ZM48.0757 38.172C48.0757 38.1578 48.1006 38.1036 48.486 37.2735C48.6165 36.9915 48.7481 36.7066 48.7785 36.6402C48.8084 36.5739 48.8836 36.4111 48.9455 36.2784C49.1683 35.8008 49.2026 35.7195 49.2026 35.6612C49.2026 35.6299 49.2192 35.3726 49.2391 35.0895C49.3154 34.0296 49.348 33.5641 49.3862 33.0069L49.4254 32.434L49.1512 31.2806C48.8316 29.9369 48.8139 29.8627 48.6165 29.0267C48.5341 28.6784 48.4595 28.3885 48.4506 28.3824C48.4418 28.3763 48.3898 28.3713 48.3362 28.3711L48.2377 28.3709L48.1814 28.4501C48.1504 28.4936 47.9176 28.8379 47.6638 29.2152C47.4106 29.5924 46.9472 30.281 46.6348 30.7454C46.3224 31.2098 45.9801 31.7186 45.8745 31.8761C45.7684 32.0337 45.488 32.4509 45.2503 32.8033C45.0131 33.1558 44.7985 33.4753 44.7731 33.5134L44.7272 33.5826L45.1463 33.9656C45.3764 34.1763 45.6838 34.458 45.8292 34.5915C45.9746 34.7251 46.2843 35.0089 46.5176 35.2221C46.7509 35.4355 46.95 35.6255 46.9599 35.6445C46.9699 35.6635 47.0711 35.8987 47.185 36.1672C47.2989 36.4357 47.4194 36.7198 47.4531 36.7986C47.4869 36.8773 47.6323 37.2215 47.7766 37.5632C47.9209 37.9049 48.0476 38.1848 48.0575 38.1851C48.0675 38.1853 48.0757 38.1795 48.0757 38.172ZM40.3663 35.7966C40.4586 35.7684 40.5244 35.7448 40.5122 35.7441C40.5001 35.7435 39.6347 35.7413 38.5886 35.7393L36.6865 35.7357L35.5016 35.5274C34.3559 35.3261 32.9073 35.0741 31.7859 34.8812L31.2446 34.7881L31.1346 34.6879C30.2798 33.9069 29.0456 32.7788 28.6193 32.3882C28.4385 32.2226 28.2306 32.0329 28.1576 31.9666C27.9657 31.7927 27.4947 31.3616 27.4261 31.2974C27.394 31.2673 27.2259 31.1139 27.0534 30.9567C26.8803 30.7994 26.7123 30.646 26.6802 30.6159C26.6481 30.5858 26.4668 30.4201 26.2777 30.2477L25.9343 29.9341L25.7131 29.3523C25.592 29.0322 25.3393 28.3633 25.1525 27.8658C24.965 27.3683 24.6288 26.4762 24.4055 25.8833C24.1821 25.2904 23.9913 24.7809 23.9808 24.7509C23.9603 24.6914 23.9244 24.837 24.4403 22.8681C24.5326 22.5156 24.6642 22.0119 24.7333 21.7486C24.8025 21.4853 24.9152 21.0546 24.9844 20.7912C25.3377 19.4412 25.4671 18.9472 25.5284 18.7086L25.5965 18.4463L26.0432 18.0373C26.2887 17.8123 26.9307 17.2248 27.4698 16.7316C28.0089 16.2384 28.5817 15.7137 28.7426 15.5657L29.0357 15.2965L29.5914 15.3055C29.8971 15.3105 30.6873 15.3181 31.3469 15.3223C32.0065 15.3266 32.7325 15.334 32.9598 15.3389C33.301 15.3462 33.3734 15.3442 33.3734 15.3275C33.3734 15.3162 33.2224 14.951 33.0383 14.5157L32.7032 13.7242L32.4931 13.7281C32.3776 13.7302 32.079 13.7421 31.8296 13.7545C31.3812 13.7769 30.0083 13.8447 29.0865 13.8899C25.6495 14.0585 25.6595 14.058 25.5168 14.0993C24.6526 14.3509 24.2838 14.4578 23.3814 14.7187C23.1039 14.7989 22.8722 14.8692 22.8672 14.8748C22.8622 14.8805 22.7926 14.9733 22.7129 15.0811C22.6333 15.1889 22.3154 15.6163 22.0063 16.0309C21.6972 16.4455 21.2875 16.995 21.0956 17.2521C20.9043 17.5091 20.6361 17.8687 20.5001 18.0511C19.9748 18.755 19.8195 18.9641 19.3871 19.5442C19.1421 19.8738 18.7556 20.3919 18.5284 20.6955L18.1159 21.2473L18.1153 24.9903L18.1142 28.7332L18.2845 29.0307C18.3785 29.1944 18.5616 29.5148 18.692 29.7429C18.8225 29.9708 19.073 30.4085 19.2488 30.7152C19.4247 31.0221 19.6104 31.3477 19.6619 31.4389C19.7138 31.5301 19.7653 31.6155 19.7763 31.6286C19.7874 31.6417 19.7968 31.6572 19.7968 31.6631C19.7968 31.6691 19.9804 31.9942 20.2043 32.3856C20.5991 33.0751 20.7771 33.3861 21.1211 33.9868C21.2112 34.1444 21.3588 34.4022 21.4489 34.5597C21.5391 34.7173 21.742 35.0718 21.8996 35.3475L22.186 35.8488L31.1921 35.8484L40.1976 35.848L40.3663 35.7966ZM43.0529 34.7896C43.1326 34.6715 43.3294 34.3826 43.4898 34.1477C43.6495 33.9128 43.7823 33.7116 43.7834 33.7006C43.785 33.6897 43.9045 33.5053 44.0488 33.291C44.1931 33.0767 44.5143 32.5994 44.7626 32.2304C46.2118 30.0756 46.7686 29.2479 47.1385 28.698C47.3663 28.3597 47.5505 28.0807 47.5471 28.078C47.5427 28.0737 43.7458 27.1178 40.7246 26.3604C40.5476 26.316 40.259 26.2432 40.0837 26.1987C39.7901 26.1244 39.7619 26.1196 39.7282 26.14C39.7088 26.1522 39.6242 26.2077 39.5407 26.2632C38.535 26.9338 36.8419 27.6372 36.3725 27.5796C36.0822 27.5441 34.6722 26.8191 33.578 26.1427C33.3911 26.0273 32.8404 25.6689 32.8199 25.6494C32.8039 25.6346 32.9416 25.549 33.5293 25.2087C34.8243 24.4583 35.3014 24.1816 35.8278 23.8754L36.3443 23.575L37.0714 23.8406C37.4717 23.9867 37.8974 24.1427 38.0174 24.1873C38.138 24.2319 38.2392 24.2657 38.2425 24.2624C38.2458 24.2591 37.835 23.6709 37.3296 22.9554C36.8237 22.2398 36.3271 21.5357 36.2248 21.3905C36.0479 21.1384 36.0302 21.1056 35.8195 20.6518C35.6984 20.3906 35.4994 19.9632 35.3772 19.702C35.1809 19.2824 35.036 18.9721 34.7336 18.3225C34.6871 18.223 34.5589 17.9482 34.4483 17.7119C34.3377 17.4756 34.1702 17.116 34.0756 16.9129C33.9805 16.7097 33.8539 16.4376 33.7936 16.3081L33.6836 16.0727L32.4058 16.063C31.7024 16.0578 30.7188 16.0492 30.2195 16.044L29.3121 16.0345L28.318 16.9443C27.7711 17.4446 27.0899 18.0672 26.8046 18.3279C26.5187 18.5886 26.2738 18.8128 26.26 18.8261C26.2356 18.8494 26.1881 19.0207 25.9199 20.0488C25.858 20.2851 25.759 20.665 25.6993 20.893C25.6396 21.1211 25.5052 21.6333 25.4013 22.0313C25.2973 22.4293 25.0999 23.1833 24.9628 23.7069L24.714 24.6589L24.9258 25.2221C25.0424 25.5319 25.1967 25.9413 25.268 26.1321C25.3393 26.3228 25.613 27.0487 25.8757 27.7452C26.1383 28.4417 26.3932 29.1187 26.4419 29.2496L26.5309 29.4875L26.7222 29.6642C26.8278 29.7613 26.9406 29.8652 26.9727 29.8951C27.0048 29.9249 27.1828 30.0874 27.3675 30.2562C27.5527 30.425 27.8458 30.6926 28.0188 30.8509C28.1919 31.009 28.6558 31.4336 29.05 31.7942C29.8291 32.5068 30.3328 32.9668 30.9217 33.5047C31.1307 33.6952 31.3607 33.9063 31.4332 33.9738L31.5648 34.0965L31.8799 34.15C32.0535 34.1794 32.5904 34.2721 33.0732 34.3558C34.6777 34.6341 35.7742 34.8247 36.2846 34.9139L36.7894 35.0021L39.8482 35.0033L42.9075 35.0045L43.0529 34.7896ZM6.71948 30.9225C6.83394 30.7505 6.95393 30.5724 6.98545 30.5268C7.01696 30.4812 7.41231 29.8927 7.86405 29.219C9.87339 26.2233 10.162 25.7933 10.4086 25.4273L10.6702 25.039H14.0336H17.3976V23.0191V20.9992L17.7659 20.5051C18.0965 20.0621 18.6202 19.3595 18.8485 19.0524C18.8955 18.9894 18.9337 18.9335 18.9337 18.928C18.9337 18.9225 17.5856 18.918 15.9379 18.918H12.9416L12.7016 19.2761C12.5689 19.473 12.3516 19.797 12.2184 19.996C12.0846 20.195 11.6428 20.8531 11.2364 21.4584C10.83 22.0637 10.1858 23.0237 9.80483 23.5917C9.42386 24.1597 8.8477 25.0179 8.5248 25.4988C8.20189 25.9798 7.59589 26.8821 7.17897 27.504C6.76151 28.1259 6.14831 29.0398 5.816 29.535C5.48314 30.0301 5.2111 30.442 5.2111 30.442C5.2111 30.448 5.37643 30.5492 6.16933 31.0291C6.30645 31.1119 6.43805 31.1921 6.46183 31.2073C6.48616 31.2224 6.50827 31.2351 6.50827 31.2351C6.50827 31.2351 6.60448 31.0946 6.71948 30.9225ZM48.5441 27.5471C48.5441 27.5419 48.7614 26.7018 49.0268 25.6803L49.5095 23.823L49.4597 23.6734C49.4138 23.5337 49.3337 23.2979 48.9903 22.2951C48.7669 21.6418 48.6303 21.2405 47.6146 18.2622C47.561 18.1046 47.3724 17.5517 47.1955 17.0335C46.8753 16.096 46.7758 15.8044 46.5613 15.1716C46.4557 14.8585 46.4457 14.8369 46.3888 14.7871C46.3556 14.7581 46.2096 14.6301 46.0647 14.5026C45.8132 14.2815 45.5074 14.0142 45.0545 13.6187C44.9406 13.5192 44.6775 13.2885 44.4696 13.1061C44.2617 12.9236 43.9785 12.6761 43.8403 12.5558C43.7026 12.4356 43.4881 12.2481 43.3637 12.1393C43.027 11.8435 42.745 11.5968 42.4436 11.3332C42.1948 11.1159 41.7337 10.7119 41.4096 10.427C41.3129 10.3421 41.2598 10.3068 41.2128 10.2954C41.1774 10.2869 40.8987 10.2292 40.593 10.1672C39.5739 9.96044 37.1427 9.46459 36.9647 9.42721C36.8679 9.40698 36.1375 9.25757 35.3407 9.09529C33.254 8.67015 32.0696 8.42826 31.9103 8.39465C31.834 8.37852 31.1854 8.24632 30.4694 8.10085C29.7528 7.95543 29.1413 7.83007 29.1092 7.82238C29.0771 7.81463 29.0484 7.8111 29.0451 7.81457C29.0379 7.82164 29.1977 8.02809 30.0287 9.08823C30.9455 10.2577 30.9494 10.2629 31.5288 11.0029C32.8138 12.6452 33.061 12.961 33.1417 13.0622C33.1887 13.121 33.2269 13.1772 33.2269 13.1872C33.2269 13.2021 33.8003 14.5264 33.9982 14.968C34.0258 15.0302 34.064 15.1184 34.0828 15.164C34.1016 15.2096 34.1397 15.2985 34.1679 15.3616C34.1967 15.4246 34.2752 15.6044 34.3438 15.7611C34.4566 16.0204 34.6396 16.4191 34.9459 17.0712C35.0084 17.2039 35.0902 17.3802 35.1284 17.4631C35.1665 17.5461 35.328 17.8921 35.4867 18.232C35.6459 18.572 35.814 18.9316 35.8605 19.0311C36.1723 19.7013 36.3177 20.0134 36.4792 20.3602L36.6628 20.7546L37.7576 22.3042C38.3591 23.1564 39.099 24.203 39.4003 24.6298L39.9494 25.4059L40.1103 25.4462C40.3336 25.5024 40.87 25.6373 41.3389 25.7556C41.5562 25.8104 42.0168 25.9262 42.3629 26.013C43.1342 26.2064 43.059 26.1875 46.0426 26.9394C47.3818 27.2771 48.4932 27.5541 48.5109 27.5551C48.5291 27.556 48.5441 27.5524 48.5441 27.5471ZM36.6943 26.7926C37.297 26.6333 38.3801 26.1353 39.0597 25.7049C39.1343 25.6579 39.1952 25.6142 39.1952 25.6076C39.1952 25.6011 39.1537 25.5365 39.1017 25.4642L39.0083 25.3326L38.7545 25.2399C38.6151 25.1889 38.0362 24.977 37.4689 24.769C36.9011 24.561 36.4283 24.3907 36.4184 24.3907C36.4084 24.3907 36.1054 24.5616 35.746 24.7704C35.3866 24.9793 34.8984 25.2626 34.6617 25.4001C34.4251 25.5376 34.2293 25.6568 34.2271 25.6649C34.2221 25.6812 34.3045 25.7313 34.7408 25.9784C35.2965 26.2929 35.9263 26.6162 36.3211 26.7895C36.4676 26.8538 36.4626 26.8538 36.6943 26.7926ZM11.9054 18.354C12.0254 18.3258 12.2161 18.2809 12.3284 18.2544C12.4412 18.2279 12.5407 18.2001 12.5496 18.1927C12.559 18.1847 13.9922 18.1807 16.0314 18.183L19.4971 18.1868L19.5905 18.0586C19.6425 17.9882 19.7984 17.7779 19.9383 17.5913C20.2618 17.1583 21.324 15.7329 21.7752 15.1258C21.9665 14.8691 22.123 14.6525 22.1241 14.6447C22.1252 14.6305 22.04 14.5985 20.8866 14.1788C20.5571 14.0587 20.1158 13.8981 19.9068 13.8219C19.6973 13.7457 19.3616 13.6236 19.1604 13.5506C18.5582 13.332 17.5967 12.9814 17.5718 12.9709C17.548 12.9612 17.5132 12.9926 16.4466 13.9796C15.8544 14.5282 15.5663 14.7943 14.8155 15.4882C14.4212 15.8525 13.9374 16.2999 13.7406 16.4823C13.5432 16.6648 13.2634 16.9237 13.1185 17.0577C12.5407 17.5922 12.2106 17.8966 11.9518 18.134C11.7157 18.3497 11.6605 18.4054 11.682 18.4054C11.682 18.4054 11.7849 18.3823 11.9054 18.354ZM23.1227 14.0273C23.2769 13.9825 23.5252 13.9107 23.6739 13.8678C23.8227 13.8248 24.0693 13.7532 24.2224 13.7087C24.375 13.6642 24.7339 13.5604 25.0198 13.4781L25.539 13.3286L25.8536 13.3115C26.0266 13.3021 26.3722 13.2843 26.6216 13.272C26.8709 13.2597 27.2696 13.2393 27.5068 13.2268C27.744 13.2144 28.2743 13.1871 28.6846 13.1663C30.1504 13.092 31.7002 13.0125 31.9651 12.9982C32.0635 12.9928 32.1442 12.9842 32.1442 12.979C32.1442 12.9681 31.9103 12.6675 30.6834 11.1009C29.4797 9.56453 28.9947 8.94554 28.2793 8.0319L27.6705 7.2545L26.9412 7.02356C26.5403 6.89649 26.1626 6.77677 26.1024 6.75745C25.8397 6.67358 24.0256 6.09806 23.9592 6.07778C23.868 6.04991 23.0674 5.79623 22.5399 5.62825C22.3226 5.55908 21.852 5.40984 21.4937 5.29674C21.136 5.18357 20.6748 5.03758 20.4697 4.97228C20.2646 4.90698 19.3672 4.62253 18.4753 4.34007L16.8541 3.82661H12.7807H8.70782L6.8627 4.77723C5.84807 5.3001 5.0231 5.73327 5.0231 5.73327C5.03085 5.74091 5.82706 6.14975 6.05266 6.26166C6.15716 6.31357 6.5984 6.53745 7.03245 6.75911C7.46705 6.98082 7.99399 7.24875 8.203 7.35451C8.66579 7.58842 9.40561 7.96432 10.266 8.40228C10.6198 8.58257 11.0345 8.79289 11.1877 8.86964C11.3403 8.9464 11.8142 9.18726 12.241 9.40487C12.6673 9.62248 13.1677 9.8769 13.3524 9.97024C13.5376 10.0635 13.9855 10.2908 14.3477 10.4753C14.7093 10.6598 15.2097 10.9141 15.4591 11.0406C16.5008 11.5687 16.8956 11.7691 17.4784 12.0655C17.835 12.2469 18.1695 12.4064 18.2757 12.4457C18.3763 12.483 18.577 12.5561 18.7219 12.6084C19.0116 12.7129 21.4163 13.589 22.2839 13.9061C22.5858 14.0163 22.8373 14.1076 22.8373 14.1076C22.8373 14.1076 22.9684 14.0721 23.1227 14.0273ZM40.0588 9.29017C40.0588 9.28515 40.04 9.25632 40.0174 9.22612C39.9941 9.19586 39.7188 8.80822 39.4053 8.36456C38.4388 6.99575 37.8521 6.1665 37.6718 5.91265L37.4993 5.66939L36.9248 5.37172C36.6086 5.20801 36.1789 4.98425 35.9699 4.8745C35.7609 4.76476 35.2014 4.47301 34.7264 4.22617C34.2514 3.97932 33.6393 3.66045 33.3656 3.51755C33.0925 3.37464 32.4959 3.06357 32.0408 2.82625L31.2131 2.39473L30.8703 2.36441C30.6817 2.34772 30.0801 2.29666 29.5327 2.25102C28.9859 2.20538 28.3373 2.15096 28.0918 2.1301C26.417 1.98771 25.5108 1.91329 25.5063 1.91785C25.5008 1.9236 25.6667 2.07871 26.8704 3.19366C27.3127 3.60353 27.7048 3.96696 27.7407 4.0012C27.7772 4.03551 28.1455 4.3774 28.5602 4.76105C28.9743 5.14465 29.3989 5.53811 29.5034 5.63543C29.6643 5.78495 31.0008 7.02373 31.4586 7.44813L31.6007 7.57947L32.2637 7.71526C32.6286 7.7899 33.2296 7.9127 33.6001 7.98814C34.409 8.15293 36.0053 8.47904 36.4012 8.5604C36.5582 8.59266 37.2035 8.72445 37.835 8.85335C38.467 8.98224 39.2106 9.13461 39.4882 9.19199C39.9908 9.29586 40.0588 9.30755 40.0588 9.29017Z" stroke="white"/>
</svg>
